/* XPM */
static char *arr[] = {
/* columns rows colors chars-per-pixel */
"48 40 2 1",
"  c #FFFFFE",
". c #22B14C",
/* pixels */
"                            .                   ",
"                            ..                  ",
"                            ...                 ",
"                            ....                ",
"                            .....               ",
"                            ......              ",
"                            .......             ",
"                            ........            ",
"                            .........           ",
"                            ..........          ",
".......................................         ",
"........................................        ",
".........................................       ",
"..........................................      ",
"...........................................     ",
"............................................    ",
".............................................   ",
"..............................................  ",
"............................................... ",
"................................................",
"................................................",
"............................................... ",
"..............................................  ",
".............................................   ",
"............................................    ",
"...........................................     ",
"..........................................      ",
".........................................       ",
"........................................        ",
".......................................         ",
"                            ..........          ",
"                            .........           ",
"                            ........            ",
"                            .......             ",
"                            ......              ",
"                            .....               ",
"                            ....                ",
"                            ...                 ",
"                            ..                  ",
"                            .                   "
};
