/* XPM */
static char *left[] = {
/* columns rows colors chars-per-pixel */
"48 48 8 1",
"  c #FFFFFE",
". c #000000",
"X c #303030",
"o c #383333",
"O c #616161",
"+ c #757575",
"@ c #a3a3a3",
"# c #d6d6d6",
/* pixels */
"                                                ",
"                                                ",
"                                                ",
"                                                ",
"                                                ",
"                                                ",
"                                                ",
"                                                ",
"                                                ",
"                                                ",
"                                                ",
"                                             .  ",
"                                           ..#. ",
"                                ...........###+.",
"                          ......OOOOOO++#######.",
"                      ....OOOOO@@OOOX++#######..",
"                 .....ooOOOOOOO##OOO #######O.+@",
"           ......OOOOo@@OOOOOOOOOOOOOO#O##O..@#@",
"         ..OOOOOO@OOOO#@OOOOOOOOOOOOOo+##O.+@#@@",
"       ..OOOOOO@OOOOo#@OOOOOOoooooOOOoO+..+#@#@@",
"     ..OO@OOOO@O@@Oo@#OOOOOO++++++oOOoo.++@#@@@@",
"  ...OOOOOOOO@@O##Oo#@OOOOO++#####+oOOo.++@#@@@@",
"..OOOOOOOOOOOOOO@@o@ @O@@@O+#######+OOo+#@@#@@@@",
".OooOOOOOOOOOoOOOOO##OOOOOo@++#####oOOo+#@@#@@+@",
".OOOOOOOOOOOOo@@OOO##@OOOOO+++#####oOOo+@@@@@@@@",
" ..OOO@#@O@@OO@OOOo+#@O+OOO+#######ooOo+@@@@@@@@",
"   ...@#@O@@@OOOO@@o##OOOOOo+#####+ooooX+++@@@@@",
"      ..OOO@@OOOO@@OO#@OOOOOo+++++ooooooX+@@@@@@",
"        ..OOOOOOOoOOo@#OOOOOOoooooOooo+@.XX@@@@@",
"          ....OOOOOOOo#@OOOOOOOOOOOOOo@##..X+#@@",
"              ....OOOOOOOOOOOOOOOOOOo.o###+..+@@",
"                  ...OooOOOOOOOOOOOoo .####+..X.",
"                     ......OOOOOOOOoo +.######..",
"                           .....oOo+@+oo..####@.",
"                                ....oooooo.+###.",
"                                    ........+##.",
"                                            ..+.",
"                                              . ",
"                                                ",
"                                                ",
"                                                ",
"                                                ",
"                                                ",
"                                                ",
"                                                ",
"                                                ",
"                                                ",
"                                                "
};
