/* XPM */
static char *middle_h[] = {
/* columns rows colors chars-per-pixel */
"48 48 8 1",
"  c #FFFFFE",
". c #000000",
"X c #383333",
"o c #383333",
"O c #616161",
"+ c #757575",
"@ c #a3a3a3",
"# c #d6d6d6",
/* pixels */
"                                                ",
"                                                ",
"                                                ",
"                                                ",
"                                                ",
"                                                ",
"                                                ",
"                                                ",
"                                                ",
"                                                ",
"            .                   .               ",
"           ..                   ..              ",
"...........Xo...................++..............",
"+OOOOOOO++XXXoooOOOOooooOOooOo@@++OOOOOOOO+++@@+",
"+OOOXXXooXXoooOO+++O+ooOOooooo##+o++OOOoooo++##X",
"..++++ooXoo++O+ooooo+OO++++++oXo+oX@@+OOoo++++oX",
"o+..++++++++oO+ooX@++OO+++oOOoOo+oooo@+++o++++..",
"@#@+..OOOOOooO++Oo+++O++++OOOoOo++OOoo+++OO++.oo",
"@@@@#+..+++o++@++++++++++@OOOoOo+OOOOoo+XXOOXo@@",
"@@@@#@@+XX+O+@++++Xo++++@+Ooo+Oo+OOOOo+OOXXXX#@@",
"@@@@#@@OX+++@+++@++++++@+Ooo++OO+o+OOoO@+OOXO#@@",
"@@@@#@@.+o#@#++@++++O@###OO+@+XX+ooooo#@@##X@#@@",
"@@@@@@.+o#####@+++++@#####+@O+X@@@o@##@@##.O@#@@",
"+@@@@.++o#@##@++o+++@#@+##@OO##@@@o@##@@@@.+@@@+",
"++@@@+.++#++##++++++O#++##OOO#@@@@o@##@@#@.@@@@@",
"@@@@@@X+++###X+@++++OO###OOO++X@@@o@##@@##.@@@@@",
"@@@@@@O.++OXXo+Xo+o++++O+XXX++XX+ooooo#@#ooX@@@@",
"@@@@@@@..++O@@+o++Xo+++++##+++Oo+XO+@X@@oXXX+@@@",
"@#@@#@++..+O##+++++@+++++##+++Oo+++++XXoXX+X+@@@",
"@#@@#@..+++oOO++++++++@#+++++oOo+++++XXOO+++.+@@",
"@#@O..OOOOoo+O++oooo+@#+++++ooOO++++ooXO++++.O@@",
"@#XXO+++oXXXXO+oooo+++++OoooooOo+oooo++ooo++O.OO",
".XXOOooooOOXXOOOO+X+OOOOOOoOO@@o+oo@@+oooooOOO..",
"OOOXXXoooOooXOXXOOXXXXoooOO@@@@@+o+++++OOO+OOOO+",
"...........oo...................++..............",
"           ..                   ..              ",
"            .                   .               ",
"                                                ",
"                                                ",
"                                                ",
"                                                ",
"                                                ",
"                                                ",
"                                                ",
"                                                ",
"                                                ",
"                                                ",
"                                                "
};
