/* XPM */
static char *right[] = {
/* columns rows colors chars-per-pixel */
"48 48 8 1",
"  c #FFFFFE",
". c #000000",
"X c #303030",
"o c #383333",
"O c #616161",
"+ c #757575",
"@ c #a3a3a3",
"# c #d6d6d6",
/* pixels */
"                                                ",
"                                                ",
"                                                ",
"                                                ",
"                                                ",
"                                                ",
"                                                ",
"                                                ",
"                                                ",
"                                                ",
" .                                              ",
".+..                                            ",
".##+........                                    ",
".###+.oooooo....                                ",
".@####..oo+@+oOo.....                           ",
"..######.+ ooOOOOOOOO......                     ",
".X..+####. ooOOOOOOOOOOOooO...                  ",
"@@+..+###o.oOOOOOOOOOOOOOOOOOO....              ",
"@@#+X..##@oOOOOOOOOOOOOO@#oOOOOOOO....          ",
"@@@@@XX.@+oooOoooooOOOOOO#@oOOoOOOOOOO..        ",
"@@@@@@+Xoooooo+++++oOOOOO@#OO@@OOOO@@OOO..      ",
"@@@@@+++Xoooo+#####+oOOOOO##o@@OOOO@@@O@#@...   ",
"@@@@@@@@+oOoo#######+OOO+O@#+oOOO@OO@@O@#@OOO.. ",
"@@@@@@@@+oOOo#####+++OOOOO@##OOO@@oOOOOOOOOOOOO.",
"@+@@#@@#+oOOo#####++@oOOOOO##OOOOOoOOOOOOOOOooO.",
"@@@@#@@#+oOO+#######+O@@@O@ @o@@OOOOOOOOOOOOOO..",
"@@@@#@++.oOOo+#####++OOOOO@#oO##O@@OOOOOOOO...  ",
"@@@@#@++.ooOOo++++++OOOOOO#@oO@@O@OOOO@OO..     ",
"@@#@#+..+OoOOOoooooOOOOOO@#oOOOO@OOOOOO..       ",
"@@#@+.O##+oOOOOOOOOOOOOO@#OOOO@OOOOOO..         ",
"@#@..O##O#OOOOOOOOOOOOOO@@oOOOO......           ",
"@+.O####### OOO##OOOOOOOoo.....                 ",
"..#######++XOOO@@OOOOO....                      ",
".#######++OOOOOO......                          ",
".+###...........                                ",
" .#..                                           ",
"  .                                             ",
"                                                ",
"                                                ",
"                                                ",
"                                                ",
"                                                ",
"                                                ",
"                                                ",
"                                                ",
"                                                ",
"                                                ",
"                                                "
};
