/* XPM */
static char *co[] = {
/* columns rows colors chars-per-pixel */
"6 32 3 1",
"  c #FFFFFE",
". c #000000",
"X c #FFFFFF",
/* pixels */
"      ",
"      ",
"      ",
"      ",
"      ",
"......",
".XXXX.",
".XXXX.",
".XXXX.",
".XXXX.",
"......",
"      ",
"      ",
"      ",
"      ",
"      ",
"      ",
"      ",
"      ",
"      ",
"      ",
"......",
".XXXX.",
".XXXX.",
".XXXX.",
".XXXX.",
"......",
"      ",
"      ",
"      ",
"      ",
"      "
};
