/* XPM */
static char *down[] = {
/* columns rows colors chars-per-pixel */
"48 48 8 1",
"  c #FFFFFE",
". c #000000",
"X c #303030",
"o c #383333",
"O c #616161",
"+ c #757575",
"@ c #a3a3a3",
"# c #d6d6d6",
/* pixels */
"             ...@@@@@@@@@@@@@@@......           ",
"            .+#.+#@@@@@+@@@@@@@X.@##+.          ",
"           .####.@##@@@@@@@@@#+.####.           ",
"            .###O.@@@@@@@@@@@+..###+.           ",
"            .####.+#####@@@@@X.+##+.            ",
"             .###O.+@@@@@@+@X.+###..            ",
"             .####O.++@@@@++X.###.o.            ",
"             .#####.++##@@+X.####.o.            ",
"             .+##O#+..++++Xo@###.oo.            ",
"             .++##+Ooooooooo+@o.+oo.            ",
"             .O+#OoooOOOOOoooo.  +o.            ",
"             .OX OOOOOOOOooooOooo@o.            ",
"             .OOOOOOOo+ooooooOOoo+.             ",
"             .OOOOOOo+####+oOOOOOo.             ",
"             .OOOOOo+######+oOOOOO.             ",
"             .O@#OOo+######+oOOOOo.             ",
"              .@#OOo+######+oOOOO.              ",
"              .OOOOo+######+oOOOO.              ",
"              .OOOOo+##++##+oOOOO.              ",
"              .OOOOO++#++#+oOOOOO.              ",
"              .OOOOOO++@++oOOOOOO.              ",
"              .OOOOOOOOoOOOOOOOO.               ",
"               .OOOOOO@OOOOOOOOO.               ",
"               .OOOOOO@OOOOOOOOO.               ",
"               .o@@OOO@OO+OOO@Oo.               ",
"               .o@#@OOOOOOO@##Oo.               ",
"                .oO##@@O@@##@oOO.               ",
"                .OOo@# ####OoOO.                ",
"                .OOOoo@##+oOOOO.                ",
"                .OOOOOoOOo@@OOO.                ",
"                .O@O@#@OOO@@oO.                 ",
"                 .OO@#@OOOOOOO.                 ",
"                 .O@OOOO@OOOOO.                 ",
"                 .OO@@OO@@OOOO.                 ",
"                 .OOO@OooOOOO.                  ",
"                 .OOOOOOOO@@O.                  ",
"                 .OOOOOOO@@@O.                  ",
"                  .OOOOOO@@OO.                  ",
"                  .O@OOOOOOO.                   ",
"                   .OOOOO@@O.                   ",
"                   .OOOOO##.                    ",
"                    .OOOO@@.                    ",
"                    .OOOOO.                     ",
"                     .OOOO.                     ",
"                     .OoOO.                     ",
"                     .OoO.                      ",
"                      .OO.                      ",
"                      ...                       "
};
