/* XPM */
static char *exit_s[] = {
/* columns rows colors chars-per-pixel */
"209 75 2 1",
"  c #FFFFFE",
". c #ED1C24",
/* pixels */
"                                                                                                                                                                                                                 ",
"                                                                                                                                                                                                                 ",
"  ............................................         ..........                        ..........         ............................................         ............................................    ",
"  ............................................         ..........                        ..........         ............................................         ............................................    ",
"  ............................................         ..........                        ..........         ............................................         ............................................    ",
"  ............................................         ..........                        ..........         ............................................         ............................................    ",
"  ............................................         ..........                        ..........         ............................................         ............................................    ",
"  ............................................         ..........                        ..........         ............................................         ............................................    ",
"  ............................................         ..........                        ..........         ............................................         ............................................    ",
"  ............................................         ..........                        ..........         ............................................         ............................................    ",
"  ............................................         ..........                        ..........         ............................................         ............................................    ",
"  ............................................         ..........                        ..........         ............................................         ............................................    ",
"  ..........                                           ..........                        ..........                          ..........                                           ..........                     ",
"  ..........                                           ..........                        ..........                          ..........                                           ..........                     ",
"  ..........                                           ..........                        ..........                          ..........                                           ..........                     ",
"  ..........                                           ..........                        ..........                          ..........                                           ..........                     ",
"  ..........                                           ..........                        ..........                          ..........                                           ..........                     ",
"  ..........                                           ..........                        ..........                          ..........                                           ..........                     ",
"  ..........                                           ..........                        ..........                          ..........                                           ..........                     ",
"  ..........                                           ..........                        ..........                          ..........                                           ..........                     ",
"  ..........                                           ..........                        ..........                          ..........                                           ..........                     ",
"  ..........                                           ..........                        ..........                          ..........                                           ..........                     ",
"  ..........                                           ..........                        ..........                          ..........                                           ..........                     ",
"  ..........                                           ..........                        ..........                          ..........                                           ..........                     ",
"  ..........                                                     ........        ........                                    ..........                                           ..........                     ",
"  ..........                                                     ........        ........                                    ..........                                           ..........                     ",
"  ..........                                                     ........        ........                                    ..........                                           ..........                     ",
"  ..........                                                     ........        ........                                    ..........                                           ..........                     ",
"  ..........                                                     ........        ........                                    ..........                                           ..........                     ",
"  ..........                                                     ........        ........                                    ..........                                           ..........                     ",
"  ..........                                                     ........        ........                                    ..........                                           ..........                     ",
"  ..............................                                 ........        ........                                    ..........                                           ..........                     ",
"  ..............................                                         ........                                            ..........                                           ..........                     ",
"  ..............................                                         ........                                            ..........                                           ..........                     ",
"  ..............................                                         ........                                            ..........                                           ..........                     ",
"  ..............................                                         ........                                            ..........                                           ..........                     ",
"  ..............................                                         ........                                            ..........                                           ..........                     ",
"  ..............................                                         ........                                            ..........                                           ..........                     ",
"  ..............................                                         ........                                            ..........                                           ..........                     ",
"  ..............................                                         ........                                            ..........                                           ..........                     ",
"  ..............................                                 ........        ........                                    ..........                                           ..........                     ",
"  ..........                                                     ........        ........                                    ..........                                           ..........                     ",
"  ..........                                                     ........        ........                                    ..........                                           ..........                     ",
"  ..........                                                     ........        ........                                    ..........                                           ..........                     ",
"  ..........                                                     ........        ........                                    ..........                                           ..........                     ",
"  ..........                                                     ........        ........                                    ..........                                           ..........                     ",
"  ..........                                                     ........        ........                                    ..........                                           ..........                     ",
"  ..........                                                     ........        ........                                    ..........                                           ..........                     ",
"  ..........                                           ..........                        ..........                          ..........                                           ..........                     ",
"  ..........                                           ..........                        ..........                          ..........                                           ..........                     ",
"  ..........                                           ..........                        ..........                          ..........                                           ..........                     ",
"  ..........                                           ..........                        ..........                          ..........                                           ..........                     ",
"  ..........                                           ..........                        ..........                          ..........                                           ..........                     ",
"  ..........                                           ..........                        ..........                          ..........                                           ..........                     ",
"  ..........                                           ..........                        ..........                          ..........                                           ..........                     ",
"  ..........                                           ..........                        ..........                          ..........                                           ..........                     ",
"  ..........                                           ..........                        ..........                          ..........                                           ..........                     ",
"  ..........                                           ..........                        ..........                          ..........                                           ..........                     ",
"  ..........                                           ..........                        ..........                          ..........                                           ..........                     ",
"  ..........                                           ..........                        ..........                          ..........                                           ..........                     ",
"  ..........                                           ..........                        ..........                          ..........                                           ..........                     ",
"  ............................................         ..........                        ..........         ...........................................                           ..........                     ",
"  ............................................         ..........                        ..........         ...........................................                           ..........                     ",
"  ............................................         ..........                        ..........         ...........................................                           ..........                     ",
"  ............................................         ..........                        ..........         ...........................................                           ..........                     ",
"  ............................................         ..........                        ..........         ...........................................                           ..........                     ",
"  ............................................         ..........                        ..........         ...........................................                           ..........                     ",
"  ............................................         ..........                        ..........         ...........................................                           ..........                     ",
"  ............................................         ..........                        ..........         ...........................................                           ..........                     ",
"  ............................................         ..........                        ..........         ...........................................                           ..........                     ",
"  ............................................         ..........                        ..........         ...........................................                           ..........                     ",
"                                                                                                                                                                                                                 ",
"                                                                                                                                                                                                                 ",
"                                                                                                                                                                                                                 ",
"                                                                                                                                                                                                                 "
};
