/* XPM */
static char *fra[] = {
/* columns rows colors chars-per-pixel */
"48 48 2 1 ",
"  c #FFFFFE",
". c #808080",
/* pixels */
"                                                ",
"                                                ",
"  .........                          .........  ",
"  .........                          .........  ",
"  ..                                        ..  ",
"  ..                                        ..  ",
"  ..                                        ..  ",
"  ..                                        ..  ",
"  ..                                        ..  ",
"  ..                                        ..  ",
"  ..                                        ..  ",
"                                                ",
"                                                ",
"                                                ",
"                                                ",
"                                                ",
"                                                ",
"                                                ",
"                                                ",
"                                                ",
"                                                ",
"                                                ",
"                                                ",
"                                                ",
"                                                ",
"                                                ",
"                                                ",
"                                                ",
"                                                ",
"                                                ",
"                                                ",
"                                                ",
"                                                ",
"                                                ",
"                                                ",
"                                                ",
"                                                ",
"  ..                                        ..  ",
"  ..                                        ..  ",
"  ..                                        ..  ",
"  ..                                        ..  ",
"  ..                                        ..  ",
"  ..                                        ..  ",
"  ..                                        ..  ",
"  .........                          .........  ",
"  .........                          .........  ",
"                                                ",
"                                                "
};
