/* XPM */
static char *middle_v[] = {
/* columns rows colors chars-per-pixel */
"48 48 8 1",
"  c #FFFFFE",
". c #000000",
"X c #383333",
"o c #4A4A4A",
"O c #616161",
"+ c #757575",
"@ c #a3a3a3",
"# c #d6d6d6",
/* pixels */
"             .O.@@@@@@@++@@@@@@o.++.            ",
"             .OX####@@@+@@@@@@#+.OO.            ",
"             .OXX@@@@@@@@@@@@@@.+OO.            ",
"             .XOXO@@@@@@@@@@@@+.+OO.            ",
"             .XOO.##@@@@@@####.++XO.            ",
"             .Xo+.@@@@@+.@@@@+.++XO.            ",
"             .oo+O.+@OX.+.@@@.O+oXO.            ",
"             .oo+O.+..++++.O+.O+ooO.            ",
"             .oooO+..+++oo+XX+O+Xo+.            ",
"             .OOXO+.+++###o+X+O+oX+.            ",
"             .oOXo+++O#+@##+++O+oXX.            ",
"            .ooXXooOOX#+##@+Ooo++oXX.           ",
"           ..oXXX+O#@X#####@++oo+oXo..          ",
"             .OOOOO#@oX#@#++@+OOOoo.            ",
"             .XO+++++++++@+++@+++Oo.            ",
"             .XOo+++oX@+++@++++ooOo.            ",
"             .OOoo+++o++o++@++Ooo+O.            ",
"             .O+oo++++++++++++oXo+O.            ",
"             .XXoo++Xo++++++X++@o+O.            ",
"             .X++o+@o+++++++o+++oOO.            ",
"             .XO++++++OO@@O+++++++o.            ",
"             .XO+@++++O###@+++OOOoo.            ",
"             .oO+#@+++#+@##++++OOoo.            ",
"             .oO++#++O#++##@+++++Oo.            ",
"             .oOO+++++#####+@++++OO.            ",
"             .OOo++##XO###OO+@+++oO.            ",
"             .Ooo++##XOO@+OoOOOo+oo.            ",
"             .@Oo++++XOOO@+ooOOO+oo.            ",
"             .@Ooo+++++OOO@+oOOO+oO.            ",
"             .@@ooo++++##++++oooooo.            ",
"             .@@OOOOOXX@#XXOOOOOX#@.            ",
"             .@ooOoooX@@@@XOooooo#@.            ",
"           ..+++++++++@@@@++++++++++..          ",
"            .+ooo+++Xo@@@@ooOO+ooo++.           ",
"             .+oo+++Ooooooo+OOOoX+O.            ",
"             .+@o++++o@@@@oOOOOo@+O.            ",
"             .+@oo++@o####oOOOoo@OO.            ",
"             .+++oXXXo####ooooo@+OO.            ",
"             .+o+XXX@#@@@@#O+o++OOO.            ",
"             .OooOOo@@@@@@@@O+++OoO.            ",
"             .Ooo+OXo###@#@+OX++ooO.            ",
"             .Ooo++XXo#@@##OXXOoooO.            ",
"             .+o++++Xo....#OXOO++o+.            ",
"             .OO+++XXX@@+OXXXO+++++.            ",
"             .OOO..++@@@@@@OXX+++++.            ",
"             .OO.O+@@@@@@####o.++#@.            ",
"             .O.O@@@@@@@@@@@@@o.o#@.            ",
"             .+.O@@@@@@@+@@@@@o.XX+.            "
};
