/* XPM */
static char *n0[] = {
/* columns rows colors chars-per-pixel */
"21 32 3 1",
"  c #FFFFFE",
". c #000000",
"X c #FFFFFF",
/* pixels */
"   ..............    ",
"   .XXXXXXXXXXXX..   ",
"   .XXXXXXXXXXXX..   ",
"   .XXXXXXXXXXXX..   ",
"....XXXXXXXXXXXX.... ",
".XXX........ XXXXXX..",
".XXX.      .XXXXXXX..",
".XXX.      .XXXXXXX..",
".XXX.  .....XXX XXX..",
".XXX.  .XXXX....XXX..",
".XXX.  .XXXX.  .XXX..",
".XXX.  .XXXX.  .XXX..",
".XXX.  .XXXX.  .XXX..",
".XXX.  .XXXX.  .XXX..",
".XXX.  .XXXX.  .XXX..",
".XXX.  .XXXX.  .XXX..",
".XXX.  .XXXX.  .XXX..",
".XXX.  .XXXX.  .XXX..",
".XXX.  .XXXX.  .XXX..",
".XXX.  .XXXX.  .XXX..",
".XXX.  .XXXX.  .XXX..",
".XXX.  .XXXX.  .XXX..",
".XXX....XXXX.  .XXX..",
".XXXXXXX.....  .XXX..",
".XXXXXXX.      .XXX..",
".XXXXXXX........XXX..",
".....XXXXXXXXXXX.....",
" ....XXXXXXXXXXX.....",
"    .XXXXXXXXXXX.    ",
"    .XXXXXXXXXXX.    ",
"    .............    ",
"     ............    "
};
