/* XPM */
static char *n1[] = {
/* columns rows colors chars-per-pixel */
"21 32 3 1",
"  c #FFFFFE",
". c #000000",
"X c #FFFFFF",
/* pixels */
"       ......        ",
"       .XXXX..       ",
"       .XXXX..       ",
"       .XXXX..       ",
"  ......XXXX..       ",
"  .XXXXXXXXX..       ",
"  .XXXXXXXXX..       ",
"  .XXXXXXXXX..       ",
"  .XXXXXXXXX..       ",
"  ......XXXX..       ",
"       .XXXX..       ",
"       .XXXX..       ",
"       .XXXX..       ",
"       .XXXX..       ",
"       .XXXX..       ",
"       .XXXX..       ",
"       .XXXX..       ",
"       .XXXX..       ",
"       .XXXX..       ",
"       .XXXX..       ",
"       .XXXX..       ",
"       .XXXX..       ",
"       .XXXX..       ",
"       .XXXX..       ",
"       .XXXX..       ",
"  ......XXXX......   ",
"  .XXXXXXXXXXXXXX..  ",
"  .XXXXXXXXXXXXXX..  ",
"  .XXXXXXXXXXXXXX..  ",
"  .XXXXXXXXXXXXXX..  ",
"  .................  ",
"   ................  "
};
