/* XPM */
static char *n6[] = {
/* columns rows colors chars-per-pixel */
"21 32 3 1",
"  c #FFFFFE",
". c #000000",
"X c #FFFFFF",
/* pixels */
"    .............    ",
"    .XXXXXXXXXXX..   ",
"    .XXXXXXXXXXX..   ",
"    .XXXXXXXXXXX..   ",
".....XXXXXXXXXXX..   ",
".XXXX.............   ",
".XXXX.............   ",
".XXXX..              ",
".XXXX..              ",
".XXXX...........     ",
".XXXXXXXXXXXXXX..    ",
".XXXXXXXXXXXXXX..    ",
".XXXXXXXXXXXXXX..    ",
".XXXXXXXXXXXXXX..... ",
".XXXX..........XXXX..",
".XXXX..........XXXX..",
".XXXX..       .XXXX..",
".XXXX..       .XXXX..",
".XXXX..       .XXXX..",
".XXXX..       .XXXX..",
".XXXX..       .XXXX..",
".XXXX..       .XXXX..",
".XXXX..       .XXXX..",
".XXXX..       .XXXX..",
".XXXX..       .XXXX..",
".XXXX..........XXXX..",
".....XXXXXXXXXX......",
" ....XXXXXXXXXX......",
"    .XXXXXXXXXX..    ",
"    .XXXXXXXXXX..    ",
"    .............    ",
"     ............    "
};
