/* XPM */
static char *n7[] = {
/* columns rows colors chars-per-pixel */
"21 32 3 1",
"  c #FFFFFE",
". c #000000",
"X c #FFFFFF",
/* pixels */
".................... ",
".XXXXXXXXXXXXXXXXXX..",
".XXXXXXXXXXXXXXXXXX..",
".XXXXXXXXXXXXXXXXXX..",
".XXXXXXXXXXXXXXXXXX..",
"...............XXXX..",
"              .XXXX..",
"              .XXXX..",
"          .....XXXX..",
"          .XXXX......",
"          .XXXX......",
"          .XXXX..    ",
"      .....XXXX..    ",
"      .XXXX......    ",
"      .XXXX......    ",
"      .XXXX..        ",
"      .XXXX..        ",
"      .XXXX..        ",
"      .XXXX..        ",
"      .XXXX..        ",
"      .XXXX..        ",
"      .XXXX..        ",
"      .XXXX..        ",
"      .XXXX..        ",
"      .XXXX..        ",
"      .XXXX..        ",
"      .XXXX..        ",
"      .XXXX..        ",
"      .XXXX..        ",
"      .XXXX..        ",
"      .......        ",
"       ......        "
};
