/* XPM */
static char *n9[] = {
/* columns rows colors chars-per-pixel */
"21 32 3 1",
"  c #FFFFFE",
". c #000000",
"X c #FFFFFF",
/* pixels */
"    ............     ",
"    .XXXXXXXXXX..    ",
"    .XXXXXXXXXX..    ",
"    .XXXXXXXXXX..    ",
".....XXXXXXXXXX..... ",
".XXXX..........XXXX..",
".XXXX..........XXXX..",
".XXXX..       .XXXX..",
".XXXX..       .XXXX..",
".XXXX..       .XXXX..",
".XXXX..       .XXXX..",
".XXXX..       .XXXX..",
".XXXX..       .XXXX..",
".XXXX..       .XXXX..",
".XXXX..       .XXXX..",
".XXXX..       .XXXX..",
".XXXX..........XXXX..",
".....XXXXXXXXXXXXXX..",
" ....XXXXXXXXXXXXXX..",
"    .XXXXXXXXXXXXXX..",
"    .XXXXXXXXXXXXXX..",
"    ...........XXXX..",
"     ..........XXXX..",
"              .XXXX..",
"              .XXXX..",
"   ............XXXX..",
"   .XXXXXXXXXXX......",
"   .XXXXXXXXXXX......",
"   .XXXXXXXXXXX..    ",
"   .XXXXXXXXXXX..    ",
"   ..............    ",
"    .............    "
};
