/* XPM */
static char *play2[] = {
/* columns rows colors chars-per-pixel */
"159 32 2 1",
"  c #FFFFFE",
". c #22B14C",
/* pixels */
"                                                                                                                                                               ",
"     ..........         ..............         ....                       ..........         ....          ....     ..................     ...............     ",
"     ..........         ..............         ....                       ..........         ....          ....     ..................     ...............     ",
"     ..........         ..............         ....                       ..........         ....          ....     ..................     ...............     ",
"     ..........         ..............         ....                       ..........         ....          ....     ..................     ...............     ",
" ....          ....     ....          ....     ....                   ....          ....     ....          ....     ....                   ....          ....  ",
" ....          ....     ....          ....     ....                   ....          ....     ....          ....     ....                   ....          ....  ",
" ....          ....     ....          ....     ....                   ....          ....     ....          ....     ....                   ....          ....  ",
" ....          ....     ....          ....     ....                   ....          ....     ....          ....     ....                   ....          ....  ",
"               ....     ....          ....     ....                   ....          ....     ....          ....     ....                   ....          ....  ",
"               ....     ....          ....     ....                   ....          ....     ....          ....     ....                   ....          ....  ",
"               ....     ....          ....     ....                   ....          ....     ....          ....     ....                   ....          ....  ",
"               ....     ....          ....     ....                   ....          ....     ....          ....     ....                   ....          ....  ",
"     ..........         ..............         ....                   ..................         ..........         ............           ..............      ",
"     ..........         ..............         ....                   ..................         ..........         ............           ..............      ",
"     ..........         ..............         ....                   ..................         ..........         ............           ..............      ",
"     ..........         ..............         ....                   ..................         ..........         ............           ..............      ",
" ....                   ....                   ....                   ....          ....            ....            ....                   ....          ....  ",
" ....                   ....                   ....                   ....          ....            ....            ....                   ....          ....  ",
" ....                   ....                   ....                   ....          ....            ....            ....                   ....          ....  ",
" ....                   ....                   ....                   ....          ....            ....            ....                   ....          ....  ",
" ....                   ....                   ....                   ....          ....            ....            ....                   ....          ....  ",
" ....                   ....                   ....                   ....          ....            ....            ....                   ....          ....  ",
" ....                   ....                   ....                   ....          ....            ....            ....                   ....          ....  ",
" ....                   ....                   ....                   ....          ....            ....            ....                   ....          ....  ",
" ....                   ....                   ....                   ....          ....            ....            ....                   ....          ....  ",
" ..................     ....                   ..................     ....          ....            ....            ..................     ....          ....  ",
" ..................     ....                   ..................     ....          ....            ....            ..................     ....          ....  ",
" ..................     ....                   ..................     ....          ....            ....            ..................     ....          ....  ",
" ..................     ....                   ..................     ....          ....            ....            ..................     ....          ....  ",
"                                                                                                                                                               ",
"                                                                                                                                                               "
};
