/* XPM */
static char *hole[] = {
/* columns rows colors chars-per-pixel */
"48 48 165 2",
"   c #FFFFFE",
".  c #08163F",
"X  c #091741",
"o  c #0A1944",
"O  c #0A1B4C",
"+  c #0A1C52",
"@  c #0B1F5A",
"#  c #11204E",
"$  c #0C215D",
"%  c #152457",
"&  c #222E53",
"*  c #263159",
"=  c #0D2364",
"-  c #0D256B",
";  c #162964",
":  c #1A2C66",
">  c #152A6B",
",  c #1F336B",
"<  c #0D2672",
"1  c #0E2875",
"2  c #0C267A",
"3  c #0F297A",
"4  c #102A7C",
"5  c #1F3674",
"6  c #1F357D",
"7  c #20336D",
"8  c #323D62",
"9  c #203574",
"0  c #20377C",
"q  c #21387F",
"w  c #2C3E73",
"e  c #384264",
"r  c #304174",
"t  c #30427F",
"y  c #3F4E7B",
"u  c #4E5772",
"i  c #525B7B",
"p  c #5B637F",
"a  c #0F2B83",
"s  c #0F2D8B",
"d  c #112C84",
"f  c #112E8C",
"g  c #1F3781",
"h  c #13308F",
"j  c #0E2D93",
"k  c #133294",
"l  c #15359E",
"z  c #203780",
"x  c #203883",
"c  c #20398B",
"v  c #213E97",
"b  c #1536A1",
"n  c #1739A5",
"m  c #1639AD",
"M  c #183BAB",
"N  c #193DB3",
"B  c #1A3FB8",
"V  c #314684",
"C  c #3E4F80",
"Z  c #344A8F",
"A  c #3F5083",
"S  c #3F5189",
"D  c #1A40BA",
"F  c #2745A4",
"G  c #2746AB",
"H  c #2847AC",
"J  c #2948AC",
"K  c #3954AB",
"L  c #2B4BB2",
"P  c #2B4CBA",
"I  c #3A56B2",
"U  c #3D5BBE",
"Y  c #4C5A82",
"T  c #405289",
"R  c #4D5D8D",
"E  c #525D81",
"W  c #425695",
"Q  c #4D5D92",
"!  c #4C5F9B",
"~  c #586487",
"^  c #576388",
"/  c #58658D",
"(  c #5A6888",
")  c #4C609E",
"_  c #596791",
"`  c #50639E",
"'  c #5A699C",
"]  c #646B83",
"[  c #626D8D",
"{  c #6C7285",
"}  c #626E94",
"|  c #647094",
" . c #6C7695",
".. c #66749E",
"X. c #6B7699",
"o. c #6E7A9F",
"O. c #747C94",
"+. c #747D9A",
"@. c #445AA1",
"#. c #455EAC",
"$. c #5366A6",
"%. c #5266A8",
"&. c #5368AC",
"*. c #5C6DA4",
"=. c #4762B6",
"-. c #4964BC",
";. c #576FBE",
":. c #546BB5",
">. c #6574A2",
",. c #6777AC",
"<. c #6979AE",
"1. c #697BB4",
"2. c #6176BC",
"3. c #6A7DBB",
"4. c #1C43C3",
"5. c #1E47CC",
"6. c #2F53C9",
"7. c #3E5EC5",
"8. c #4B67C2",
"9. c #566FC0",
"0. c #5670C2",
"q. c #7A8195",
"w. c #7B839B",
"e. c #7581AA",
"r. c #7B86AB",
"t. c #7D88AD",
"y. c #7A84A5",
"u. c #7987B5",
"i. c #7D8AB6",
"p. c #7282B9",
"a. c #7A88B9",
"s. c #808699",
"d. c #858C9E",
"f. c #8A8E9D",
"g. c #8D929F",
"h. c #8087A2",
"j. c #838BA2",
"k. c #8A8FA1",
"l. c #828CAC",
"z. c #8D92A2",
"x. c #8B93AD",
"c. c #9296A3",
"v. c #9599A5",
"b. c #9A9DA5",
"n. c #9197AB",
"m. c #969BAB",
"M. c #999EAB",
"N. c #838FB5",
"B. c #8691B4",
"V. c #8C95B3",
"C. c #949AB1",
"Z. c #999EB0",
"A. c #9EA0A7",
"S. c #9EA1AC",
"D. c #A2A3A7",
"F. c #A3A5AB",
"G. c #A5A7AA",
"H. c #A0A3AD",
"J. c #A2A4AD",
"K. c #A4A6AC",
"L. c #A3A5AA",
"P. c #A7A8AB",
"I. c #A7A8AB",
"U. c #A9A9AB",
"Y. c #AAAAAB",
/* pixels */
"                                                                                                ",
"                              5.5.5.5.5.5.5.5.5.5.5.5.5.5.5.                                    ",
"                      5.5.5.5.5.5.5.5.5.D D D D D 4.5.G M D D l G 4.5.5.7.5.5.5.                ",
"                  5.5.6.5.b b F l l D 5.5.l 5.5.5.k 5.d O O O $ t >.>.>.>.,.3.3.8.5.5.          ",
"              ;.7.5.I 8.p.p.>.-.D N 3 n a = = $ = - < O X O @ : ) t.7.p.p.r.8.3.7.5.5.6.        ",
"          3.N.J.S.m.e.*.e.Z Y r = = = = = - = = = = @ + X o . o & u O.v.x.n.B.C.V.i.p.;.        ",
"          V.J.U.p.p.*.S [ Y q.[ y , = = = = $ = = = = = O o o * ]  .w.k.z.o.i.C.S.a.N.2.5.      ",
"        P.J.P.K.t.S.t.w.g.w.w.E = = $ = = = = = $ = = - @ O % r q.z.L.D.J.Z.J.J.J.p.V.p.8.      ",
"        U.B.J.J.c.n.d.d.d./ ~ r = = = - - - = = - < - = - - < 6 w.b.v.w.v.v.>.a.V.a.V.p.8.6.    ",
"        U.J.P.J.A.c.S | q.R q.^ y 9 < < - < < < 3 3 < - - 3 1 0 R d.d.z.v.b.t.N.N.l.3.7.5.5.    ",
"      2.J.J.G.n.+.w.R +.w. ._ V 3 3 3 3 3 3 3 3 3 3 3 3 3 2 < 3 3 R O.O.} | Q ! #.#.6.5.5.5.    ",
"    6.7.B.S.A.X. .X.R Q S S g 2 3 3 3 3 3 3 3 3 3 3 3 3 3 3 < - - 5 R R 6 z S g B 5.5.5.5.5.5.  ",
"    5.5.2.1.s.} +.} ( V 3 1 = < 3 3 3 2 3 4 3 < 3 3 3 3 < - = - - = - - - 3 2 3 a 5.5.5.5.5.5.  ",
"    5.5.L ! ' $.R V = = = = = = = < 2 < 3 < 2 2 3 3 3 < < - < = = = = = - 2 3 3 2 9.5.6.5.0.5.  ",
"  5.5.5.4.m l T 0 = = = = $ = = = = - - - = - < 3 3 3 < < < < = $ = = = , 5 1 V z m.J.U.U.J.3.  ",
"  5.5.4.4.4.1 - = = = = = = = = $ = = - - < < < 3 3 3 3 < - = = - - = = y w.g.b.G.Y.U.U.U.M.0.  ",
"  5.5.5.N l - = = @ = = = = $ = = = = = - - = - 1 1 1 1 < - - < < - = 5 } z.k.v.I.L.U.I.Y.U.J.  ",
"  5.4.4.5.f 3 - = = = = = = $ = = $ = - - - < 1 1 4 4 1 1 - - - < - - 6 T +.z.b.G.A.U.U.Y.P.B.  ",
"  5.4.5.n l 2 < - = = = = $ = = = - = - - < 1 3 4 3 q 4 q 1 T - 6 2 V 2 4 R +.+.z.d.L.L.V.p.6.  ",
"  5.5.5.4.M 2 2 < - - = = < - = - < - 1 1 4 3 3 1 4 T } w.k.v.b.v.k.} 3 1 q R R S | ) 3.7.5.5.  ",
"  5.4.D B B 2 2 2 2 2 2 3 2 2 1 < < 1 1 3 4 1 4 3 z _ w. .c.c.A.} +.R 3 2 3 3 4 3 2 5.5.N 5.5.  ",
"  5.I M a.d V a X.2 3 3 3 3 3 3 3 3 4 3 4 1 4 3 3 0 V X.} b.g.D.c.b.d.} V 2 2 < 2 2 b k 5.5.5.  ",
"  p.C.S.Y.Y.Y.Y.D.3 3 3 3 3 1 3 3 4 1 1 1 1 3 1 1 - = Y Y  .[ f.w.O.Y - - - - < 2 2 k N 5.5.N   ",
"  C.K.Y.Y.Y.D.I.c.q 3 q 3 q 3 3 3 3 3 4 3 4 1 4 = = = > u w y u [ r = = = - - = - 2 s b k N N   ",
"  C.J.Y.U.Y.Y.Y.Y.Y.A.+. .T 3 3 3 3 3 3 3 3 < - = = = = = = $ = = = = = = = = - - < 1 f 5.5.5.  ",
"  p.V.J.K.Y.Y.Y.P. .k.R R V 3 3 3 1 3 4 3 < - = - = = = = = = = = = = @ = = = = = = - j 5.5.5.  ",
"  6.p.V.C.v.P.w. .| v.+.k.} T z 3 > - - - - - - - = = = = = = = = = = = = = = = - = - 4.5.N 5.  ",
"  5.6.;.:.c 2 3 R R +.} R V 3 3 2 < - 2 > - - < - - = = - < - - - = = = = = = = = $ = - k j 5.  ",
"  5.5.N M 5.2 3 z T V T q 3 3 1 < 1 - < - - - - - - - - < - - - - = = - - = < = - = - 4 l j 5.  ",
"  5.5.5.4.5.a 2 2 3 3 3 3 3 3 3 3 3 < - > < > < < < 1 < < - < - - = = - = @ + + O $ d n 4.4.5.  ",
"  5.5.5.5.4.l < 2 2 > < 3 3 1 3 3 3 1 < 1 3 1 < 1 3 3 1 < 3 2 2 2 < = - = + + - = < d 5.5.5.5.  ",
"  5.5.5.5.4.k + o O + $ - - < 3 3 3 3 3 3 3 3 3 3 3 2 2 3 2 3 2 2 3 < - - - + = O = f D 5.D 5.  ",
"  5.5.5.5.N d O O @ + $ - - - - < - 1 - 1 1 3 3 1 3 3 1 2 2 2 2 2 3 3 3 V 2 = ; , < J F D D 6.  ",
"    5.5.5.P l > @ # X # @ $ = = = = - = - - < - 1 1 1 4 2 2 2 2 g 3 2 g  .z.q.{ q...r.N.3.3.8.  ",
"    5.5.6.-.1.E e 8 8 p = = = Y = = $ - - - < - < 3 3 3 3 3 3 3 A | } z.A.D.d.L.b.t.M.n.7.9.8.  ",
"    5.5.9.x.M.k.] i q.b.D.D.D.f.$ = = $ = - - = - < 1 1 - = - 7 _ q.A z.D.A.A.Y.G.A.G.L.C.M.a.  ",
"    5.6.3.B.Z.K.U.G.G.D.Y.q.v.O.- = - = = - - - - - - - = = 9 9 [ c.g.D.I.A.D.D.G.V.J.J.i.i.9.  ",
"      6.7.a.J.U.P.G.U.D.U.b.I.A.d.Y - - = - = - - - = 6 - = y O.c.I.D.D.D.A.L.A.M.C.Z.C.N.B.2.  ",
"      5.5.3.i.J.J.P.M.x.L.v.v.O.3 3 1 < = - = - - - - u _  .d.g.w.D.D.v.A.A.u.>.p.p.2.3.9.;.7.  ",
"        5.6.8.B.x.M.N.u.t.m._ 1 3 3 3 3 - - - < 1 - 9 ~ +.T [ q. .D.A.A.S.A.y.i.3.3.7.6.8.6.5.  ",
"          5.5.7.3.1.;.$.K l n b a 3 a d a - 2 2 < 1 0 V | Q +.w.X.l.n.i.3.3.;.;.7.5.5.5.5.5.5.  ",
"          5.5.5.5.6.-.H B H M B d x s j f a 3 2 a 4 f k &.%.&.=.#.7.) 0.6.6.0.6.5.5.6.5.5.5.5.  ",
"            5.5.5.5.5.4.4.-.<.1.>.W f j s d a 2 k B M 4.P -.L 4.4.4.5.5.5.5.8.3.3.3.8.5.5.5.    ",
"                5.5.5.5.6.2.i.7.;.7.5.5.5.4.4.4.N 4.4.4.5.5.5.5.5.5.5.5.5.6.2.i.7.;.7.5.5.      ",
"                5.5.5.5.6.7.3.;.i.2.8.6.5.5.5.5.5.5.5.5.5.4.5.5.5.5.5.5.5.6.7.3.;.a.2.8.        ",
"                    5.5.5.5.;.;.;.7.5.5.5.5.5.4.5.5.5.5.5.5.5.5.5.5.5.5.5.5.5.;.;.              ",
"                              8.6.5.5.5.5.5.5.5.5.5.5.5.5.5.5.5.5.5.5.5.5.                      ",
"                                                                                                "
};
