/* XPM */
static char *red[] = {
/* columns rows colors chars-per-pixel */
"48 48 2 1",
"  c #FFFFFE",
". c #EB2323",
/* pixels */
"                                                ",
"                                                ",
"                                                ",
"                   ..........                   ",
"                ................                ",
"             ......................             ",
"            ........        ........            ",
"          .......              .......          ",
"         ......                  ......         ",
"        .....                      .....        ",
"       .....                        .....       ",
"      ....                            ....      ",
"     ....    ..                  ..    ....     ",
"     ....   ....                ....   ....     ",
"    ....   ......              ......   ....    ",
"    ...    .......            .......    ...    ",
"   ....     .......          .......     ....   ",
"   ...       .......        .......       ...   ",
"   ...        .......      .......        ...   ",
"  ....         .......    .......         ....  ",
"  ...           .......  .......           ...  ",
"  ...            ..............            ...  ",
"  ...             ............             ...  ",
"  ...              ..........              ...  ",
"  ...              ..........              ...  ",
"  ...             ............             ...  ",
"  ...            ..............            ...  ",
"  ...           ................           ...  ",
"  ....         ........  ........         ....  ",
"   ...        .......      .......        ...   ",
"   ...       .......        .......       ...   ",
"   ....     .......          .......     ....   ",
"    ...    .......            .......    ...    ",
"    ....   ......              ......   ....    ",
"     ....   ....                ....   ....     ",
"     ....    ..                  ..    ....     ",
"      ....                            ....      ",
"       .....                        .....       ",
"        .....                      .....        ",
"         ......                  ......         ",
"          .......              .......          ",
"            ........        ........            ",
"             ......................             ",
"                ................                ",
"                   ..........                   ",
"                                                ",
"                                                ",
"                                                "
};
