/* XPM */
static char *title[] = {
/* columns rows colors chars-per-pixel */
"159 68 3 1",
"  c #FFFFFE",
". c #000000",
"X c #FFFFFF",
/* pixels */
"       ......          ................       ......                     ............       ......        ......   ....................   .................    ",
"       .XXXX..         .XXXXXXXXXXXXXX..      .XXXX..                    .XXXXXXXXXX..      .XXXX.        .XXXX..  .XXXXXXXXXXXXXXXXXX..  .XXXXXXXXXXXXXXX..   ",
"       .XXXX..         .XXXXXXXXXXXXXX..      .XXXX..                    .XXXXXXXXXX..      .XXXX.        .XXXX..  .XXXXXXXXXXXXXXXXXX..  .XXXXXXXXXXXXXXX..   ",
"       .XXXX..         .XXXXXXXXXXXXXX..      .XXXX..                    .XXXXXXXXXX..      .XXXX.        .XXXX..  .XXXXXXXXXXXXXXXXXX..  .XXXXXXXXXXXXXXX..   ",
"  ......XXXX..         .XXXXXXXXXXXXXX.....   .XXXX..                .....XXXXXXXXXX.....   .XXXX.        .XXXX..  .XXXXXXXXXXXXXXXXXX..  .XXXXXXXXXXXXXXX.... ",
"  .XXXXXXXXX..         .XXXX..........XXXX..  .XXXX..                .XXXX..........XXXX..  .XXXX.        .XXXX..  .XXXX................  .XXXX..........XXXX..",
"  .XXXXXXXXX..         .XXXX..........XXXX..  .XXXX..                .XXXX..........XXXX..  .XXXX.        .XXXX..  .XXXX................  .XXXX..........XXXX..",
"  .XXXXXXXXX..         .XXXX..       .XXXX..  .XXXX..                .XXXX..       .XXXX..  .XXXX.        .XXXX..  .XXXX..                .XXXX..       .XXXX..",
"  .XXXXXXXXX..         .XXXX..       .XXXX..  .XXXX..                .XXXX..       .XXXX..  .XXXX.        .XXXX..  .XXXX..                .XXXX..       .XXXX..",
"  ......XXXX..         .XXXX..       .XXXX..  .XXXX..                .XXXX..       .XXXX..  .XXXX.        .XXXX..  .XXXX..                .XXXX..       .XXXX..",
"       .XXXX..         .XXXX..       .XXXX..  .XXXX..                .XXXX..       .XXXX..  .XXXX.        .XXXX..  .XXXX..                .XXXX..       .XXXX..",
"       .XXXX..         .XXXX..       .XXXX..  .XXXX..                .XXXX..       .XXXX..  .XXXX.        .XXXX..  .XXXX..                .XXXX..       .XXXX..",
"       .XXXX..         .XXXX..........XXXX..  .XXXX..                .XXXX..........XXXX..  .XXXX..........XXXX..  .XXXX.........         .XXXX..........XXXX..",
"       .XXXX..         .XXXXXXXXXXXXXX......  .XXXX..                .XXXXXXXXXXXXXXXXXX..  .....XXXXXXXXXX......  .XXXXXXXXXXXX..        .XXXXXXXXXXXXXX......",
"       .XXXX..         .XXXXXXXXXXXXXX......  .XXXX..                .XXXXXXXXXXXXXXXXXX..   ....XXXXXXXXXX......  .XXXXXXXXXXXX..        .XXXXXXXXXXXXXX......",
"       .XXXX..         .XXXXXXXXXXXXXX..      .XXXX..                .XXXXXXXXXXXXXXXXXX..      .XXXXXXXXXX..      .XXXXXXXXXXXX..        .XXXXXXXXXXXXXX..    ",
"       .XXXX..         .XXXXXXXXXXXXXX..      .XXXX..                .XXXXXXXXXXXXXXXXXX..      .XXXXXXXXXX..      .XXXXXXXXXXXX..        .XXXXXXXXXXXXXX..... ",
"       .XXXX..         .XXXX............      .XXXX..                .XXXX..........XXXX..      ....XXXX.....      .XXXX..........        .XXXX..........XXXX..",
"       .XXXX..         .XXXX............      .XXXX..                .XXXX..........XXXX..       ...XXXX.....      .XXXX..........        .XXXX..........XXXX..",
"       .XXXX..         .XXXX..                .XXXX..                .XXXX..       .XXXX..         .XXXX..         .XXXX..                .XXXX..       .XXXX..",
"       .XXXX..         .XXXX..                .XXXX..                .XXXX..       .XXXX..         .XXXX..         .XXXX..                .XXXX..       .XXXX..",
"       .XXXX..         .XXXX..                .XXXX..                .XXXX..       .XXXX..         .XXXX..         .XXXX..                .XXXX..       .XXXX..",
"       .XXXX..         .XXXX..                .XXXX..                .XXXX..       .XXXX..         .XXXX..         .XXXX..                .XXXX..       .XXXX..",
"       .XXXX..         .XXXX..                .XXXX..                .XXXX..       .XXXX..         .XXXX..         .XXXX..                .XXXX..       .XXXX..",
"       .XXXX..         .XXXX..                .XXXX..                .XXXX..       .XXXX..         .XXXX..         .XXXX..                .XXXX..       .XXXX..",
"  ......XXXX......     .XXXX..                .XXXX...............   .XXXX..       .XXXX..         .XXXX..         .XXXX...............   .XXXX..       .XXXX..",
"  .XXXXXXXXXXXXXX..    .XXXX..                .XXXXXXXXXXXXXXXXXX..  .XXXX..       .XXXX..         .XXXX..         .XXXXXXXXXXXXXXXXXX..  .XXXX..       .XXXX..",
"  .XXXXXXXXXXXXXX..    .XXXX..                .XXXXXXXXXXXXXXXXXX..  .XXXX..       .XXXX..         .XXXX..         .XXXXXXXXXXXXXXXXXX..  .XXXX..       .XXXX..",
"  .XXXXXXXXXXXXXX..    .XXXX..                .XXXXXXXXXXXXXXXXXX..  .XXXX..       .XXXX..         .XXXX..         .XXXXXXXXXXXXXXXXXX..  .XXXX..       .XXXX..",
"  .XXXXXXXXXXXXXX..    .XXXX..                .XXXXXXXXXXXXXXXXXX..  .XXXX..       .XXXX..         .XXXX..         .XXXXXXXXXXXXXXXXXX..  .XXXX..       .XXXX..",
"  .................    .......                .....................  .......       .......         .......         .....................  .......       .......",
"   ................     ......                 ....................   ......        ......          ......          ....................    .....         .....",
"                                                                                                                                                               ",
"                                                                                                                                                               ",
"                                                                                                                                                               ",
"                                                                                                                                                               ",
"    ............       ................       ......                     ............       ......        ......   ....................   .................    ",
"    .XXXXXXXXXX..      .XXXXXXXXXXXXXX..      .XXXX..                    .XXXXXXXXXX..      .XXXX.        .XXXX..  .XXXXXXXXXXXXXXXXXX..  .XXXXXXXXXXXXXXX..   ",
"    .XXXXXXXXXX..      .XXXXXXXXXXXXXX..      .XXXX..                    .XXXXXXXXXX..      .XXXX.        .XXXX..  .XXXXXXXXXXXXXXXXXX..  .XXXXXXXXXXXXXXX..   ",
"    .XXXXXXXXXX..      .XXXXXXXXXXXXXX..      .XXXX..                    .XXXXXXXXXX..      .XXXX.        .XXXX..  .XXXXXXXXXXXXXXXXXX..  .XXXXXXXXXXXXXXX..   ",
".....XXXXXXXXXX.....   .XXXXXXXXXXXXXX.....   .XXXX..                .....XXXXXXXXXX.....   .XXXX.        .XXXX..  .XXXXXXXXXXXXXXXXXX..  .XXXXXXXXXXXXXXX.... ",
".XXXX..........XXXX..  .XXXX..........XXXX..  .XXXX..                .XXXX..........XXXX..  .XXXX.        .XXXX..  .XXXX................  .XXXX..........XXXX..",
".XXXX..........XXXX..  .XXXX..........XXXX..  .XXXX..                .XXXX..........XXXX..  .XXXX.        .XXXX..  .XXXX................  .XXXX..........XXXX..",
".XXXX..       .XXXX..  .XXXX..       .XXXX..  .XXXX..                .XXXX..       .XXXX..  .XXXX.        .XXXX..  .XXXX..                .XXXX..       .XXXX..",
".XXXX..       .XXXX..  .XXXX..       .XXXX..  .XXXX..                .XXXX..       .XXXX..  .XXXX.        .XXXX..  .XXXX..                .XXXX..       .XXXX..",
".......       .XXXX..  .XXXX..       .XXXX..  .XXXX..                .XXXX..       .XXXX..  .XXXX.        .XXXX..  .XXXX..                .XXXX..       .XXXX..",
" ......       .XXXX..  .XXXX..       .XXXX..  .XXXX..                .XXXX..       .XXXX..  .XXXX.        .XXXX..  .XXXX..                .XXXX..       .XXXX..",
"              .XXXX..  .XXXX..       .XXXX..  .XXXX..                .XXXX..       .XXXX..  .XXXX.        .XXXX..  .XXXX..                .XXXX..       .XXXX..",
"    ...........XXXX..  .XXXX..........XXXX..  .XXXX..                .XXXX..........XXXX..  .XXXX..........XXXX..  .XXXX.........         .XXXX..........XXXX..",
"    .XXXXXXXXXX......  .XXXXXXXXXXXXXX......  .XXXX..                .XXXXXXXXXXXXXXXXXX..  .....XXXXXXXXXX......  .XXXXXXXXXXXX..        .XXXXXXXXXXXXXX......",
"    .XXXXXXXXXX......  .XXXXXXXXXXXXXX......  .XXXX..                .XXXXXXXXXXXXXXXXXX..   ....XXXXXXXXXX......  .XXXXXXXXXXXX..        .XXXXXXXXXXXXXX......",
"    .XXXXXXXXXX..      .XXXXXXXXXXXXXX..      .XXXX..                .XXXXXXXXXXXXXXXXXX..      .XXXXXXXXXX..      .XXXXXXXXXXXX..        .XXXXXXXXXXXXXX..    ",
".....XXXXXXXXXX..      .XXXXXXXXXXXXXX..      .XXXX..                .XXXXXXXXXXXXXXXXXX..      .XXXXXXXXXX..      .XXXXXXXXXXXX..        .XXXXXXXXXXXXXX..... ",
".XXXX............      .XXXX............      .XXXX..                .XXXX..........XXXX..      ....XXXX.....      .XXXX..........        .XXXX..........XXXX..",
".XXXX............      .XXXX............      .XXXX..                .XXXX..........XXXX..       ...XXXX.....      .XXXX..........        .XXXX..........XXXX..",
".XXXX..                .XXXX..                .XXXX..                .XXXX..       .XXXX..         .XXXX..         .XXXX..                .XXXX..       .XXXX..",
".XXXX..                .XXXX..                .XXXX..                .XXXX..       .XXXX..         .XXXX..         .XXXX..                .XXXX..       .XXXX..",
".XXXX..                .XXXX..                .XXXX..                .XXXX..       .XXXX..         .XXXX..         .XXXX..                .XXXX..       .XXXX..",
".XXXX..                .XXXX..                .XXXX..                .XXXX..       .XXXX..         .XXXX..         .XXXX..                .XXXX..       .XXXX..",
".XXXX..                .XXXX..                .XXXX..                .XXXX..       .XXXX..         .XXXX..         .XXXX..                .XXXX..       .XXXX..",
".XXXX..                .XXXX..                .XXXX..                .XXXX..       .XXXX..         .XXXX..         .XXXX..                .XXXX..       .XXXX..",
".XXXX...............   .XXXX..                .XXXX...............   .XXXX..       .XXXX..         .XXXX..         .XXXX...............   .XXXX..       .XXXX..",
".XXXXXXXXXXXXXXXXXX..  .XXXX..                .XXXXXXXXXXXXXXXXXX..  .XXXX..       .XXXX..         .XXXX..         .XXXXXXXXXXXXXXXXXX..  .XXXX..       .XXXX..",
".XXXXXXXXXXXXXXXXXX..  .XXXX..                .XXXXXXXXXXXXXXXXXX..  .XXXX..       .XXXX..         .XXXX..         .XXXXXXXXXXXXXXXXXX..  .XXXX..       .XXXX..",
".XXXXXXXXXXXXXXXXXX..  .XXXX..                .XXXXXXXXXXXXXXXXXX..  .XXXX..       .XXXX..         .XXXX..         .XXXXXXXXXXXXXXXXXX..  .XXXX..       .XXXX..",
".XXXXXXXXXXXXXXXXXX..  .XXXX..                .XXXXXXXXXXXXXXXXXX..  .XXXX..       .XXXX..         .XXXX..         .XXXXXXXXXXXXXXXXXX..  .XXXX..       .XXXX..",
".....................  .......                .....................  .......       .......         .......         .....................  .......       .......",
" ....................   ......                 ....................   ......        ......          ......          ....................    .....         ....."
};
