/* XPM */
static char *up[] = {
/* columns rows colors chars-per-pixel */
"48 48 8 1",
"  c #FFFFFE",
". c #000000",
"X c #303030",
"o c #383333",
"O c #616161",
"+ c #757575",
"@ c #a3a3a3",
"# c #d6d6d6",
/* pixels */
"                       ...                      ",
"                      .OO.                      ",
"                      .OoO.                     ",
"                     .OOoO.                     ",
"                     .OOOO.                     ",
"                     .OOOOO.                    ",
"                    .@@OOOO.                    ",
"                    .##OOOOO.                   ",
"                   .O@@OOOOO.                   ",
"                   .OOOOOOO@O.                  ",
"                  .OO@@OOOOOO.                  ",
"                  .O@@@OOOOOOO.                 ",
"                  .O@@OOOOOOOO.                 ",
"                  .OOOOooO@OOO.                 ",
"                 .OOOO@@OO@@OO.                 ",
"                 .OOOOO@OOOO@O.                 ",
"                 .OOOOOOO@#@OO.                 ",
"                 .Oo@@OOO@#@O@O.                ",
"                .OOO@@oOOoOOOOO.                ",
"                .OOOOo+##@ooOOO.                ",
"                .OOoO#### #@oOO.                ",
"               .OOo@##@@O@@##Oo.                ",
"               .oO##@OOOOOOO@#@o.               ",
"               .oO@OOO+OO@OOO@@o.               ",
"               .OOOOOOOOO@OOOOOO.               ",
"               .OOOOOOOOO@OOOOOO.               ",
"               .OOOOOOOOoOOOOOOOO.              ",
"              .OOOOOOo++@++OOOOOO.              ",
"              .OOOOOo+#++#++OOOOO.              ",
"              .OOOOo+##++##+oOOOO.              ",
"              .OOOOo+######+oOOOO.              ",
"              .OOOOo+######+oOO#@.              ",
"             .oOOOOo+######+oOO#@O.             ",
"             .OOOOOo+######+oOOOOO.             ",
"             .oOOOOOo+####+oOOOOOO.             ",
"             .+ooOOoooooo+oOOOOOOO.             ",
"            .o@oooOooooOOOOOOOO XO.             ",
"            .o+  .ooooOOOOOoooO#+O.             ",
"            .oo+.o@+ooooooooO+##++.             ",
"            .oo.###@oX++++..+#O##+.             ",
"            .o.####.X+@@##++.#####.             ",
"            .o.###.X++@@@@++.O####.             ",
"            ..###+.X@+@@@@@@+.O###.             ",
"            .+##+.X@@@@@#####+.####.            ",
"           .+###..+@@@@@@@@@@@.O###.            ",
"           .####.+#@@@@@@@@@##@.####.           ",
"          .+##@.X@@@@@@@+@@@@@#+.#+.            ",
"           ......@@@@@@@@@@@@@@@...             "
};
