/* XPM */
static char *ext[] = {
/* columns rows colors chars-per-pixel */
"209 75 3 1",
"  c #FFFFFE",
". c #000000",
"X c #FFFFFF",
/* pixels */
"................................................     ..............                    ..............     ................................................     ................................................  ",
"................................................     ..............                    ..............     ................................................     ................................................  ",
"..XXXXXXXXXXXXXXXXXXXXXXXXXXXXXXXXXXXXXXXXXXXX....   ..XXXXXXXXXX....                  ..XXXXXXXXXX....   ..XXXXXXXXXXXXXXXXXXXXXXXXXXXXXXXXXXXXXXXXXXXX....   ..XXXXXXXXXXXXXXXXXXXXXXXXXXXXXXXXXXXXXXXXXXXX....",
"..XXXXXXXXXXXXXXXXXXXXXXXXXXXXXXXXXXXXXXXXXXXX....   ..XXXXXXXXXX....                  ..XXXXXXXXXX....   ..XXXXXXXXXXXXXXXXXXXXXXXXXXXXXXXXXXXXXXXXXXXX....   ..XXXXXXXXXXXXXXXXXXXXXXXXXXXXXXXXXXXXXXXXXXXX....",
"..XXXXXXXXXXXXXXXXXXXXXXXXXXXXXXXXXXXXXXXXXXXX....   ..XXXXXXXXXX....                  ..XXXXXXXXXX....   ..XXXXXXXXXXXXXXXXXXXXXXXXXXXXXXXXXXXXXXXXXXXX....   ..XXXXXXXXXXXXXXXXXXXXXXXXXXXXXXXXXXXXXXXXXXXX....",
"..XXXXXXXXXXXXXXXXXXXXXXXXXXXXXXXXXXXXXXXXXXXX....   ..XXXXXXXXXX....                  ..XXXXXXXXXX....   ..XXXXXXXXXXXXXXXXXXXXXXXXXXXXXXXXXXXXXXXXXXXX....   ..XXXXXXXXXXXXXXXXXXXXXXXXXXXXXXXXXXXXXXXXXXXX....",
"..XXXXXXXXXXXXXXXXXXXXXXXXXXXXXXXXXXXXXXXXXXXX....   ..XXXXXXXXXX....                  ..XXXXXXXXXX....   ..XXXXXXXXXXXXXXXXXXXXXXXXXXXXXXXXXXXXXXXXXXXX....   ..XXXXXXXXXXXXXXXXXXXXXXXXXXXXXXXXXXXXXXXXXXXX....",
"..XXXXXXXXXXXXXXXXXXXXXXXXXXXXXXXXXXXXXXXXXXXX....   ..XXXXXXXXXX....                  ..XXXXXXXXXX....   ..XXXXXXXXXXXXXXXXXXXXXXXXXXXXXXXXXXXXXXXXXXXX....   ..XXXXXXXXXXXXXXXXXXXXXXXXXXXXXXXXXXXXXXXXXXXX....",
"..XXXXXXXXXXXXXXXXXXXXXXXXXXXXXXXXXXXXXXXXXXXX....   ..XXXXXXXXXX....                  ..XXXXXXXXXX....   ..XXXXXXXXXXXXXXXXXXXXXXXXXXXXXXXXXXXXXXXXXXXX....   ..XXXXXXXXXXXXXXXXXXXXXXXXXXXXXXXXXXXXXXXXXXXX....",
"..XXXXXXXXXXXXXXXXXXXXXXXXXXXXXXXXXXXXXXXXXXXX....   ..XXXXXXXXXX....                  ..XXXXXXXXXX....   ..XXXXXXXXXXXXXXXXXXXXXXXXXXXXXXXXXXXXXXXXXXXX....   ..XXXXXXXXXXXXXXXXXXXXXXXXXXXXXXXXXXXXXXXXXXXX....",
"..XXXXXXXXXXXXXXXXXXXXXXXXXXXXXXXXXXXXXXXXXXXX....   ..XXXXXXXXXX....                  ..XXXXXXXXXX....   ..XXXXXXXXXXXXXXXXXXXXXXXXXXXXXXXXXXXXXXXXXXXX....   ..XXXXXXXXXXXXXXXXXXXXXXXXXXXXXXXXXXXXXXXXXXXX....",
"..XXXXXXXXXXXXXXXXXXXXXXXXXXXXXXXXXXXXXXXXXXXX....   ..XXXXXXXXXX....                  ..XXXXXXXXXX....   ..XXXXXXXXXXXXXXXXXXXXXXXXXXXXXXXXXXXXXXXXXXXX....   ..XXXXXXXXXXXXXXXXXXXXXXXXXXXXXXXXXXXXXXXXXXXX....",
"..XXXXXXXXXX......................................   ..XXXXXXXXXX....                  ..XXXXXXXXXX....   ...................XXXXXXXXXX.....................   ...................XXXXXXXXXX.....................",
"..XXXXXXXXXX......................................   ..XXXXXXXXXX....                  ..XXXXXXXXXX....   ...................XXXXXXXXXX.....................   ...................XXXXXXXXXX.....................",
"..XXXXXXXXXX......................................   ..XXXXXXXXXX....                  ..XXXXXXXXXX....                    ..XXXXXXXXXX.....................                    ..XXXXXXXXXX.....................",
"..XXXXXXXXXX......................................   ..XXXXXXXXXX....                  ..XXXXXXXXXX....                    ..XXXXXXXXXX.....................                    ..XXXXXXXXXX.....................",
"..XXXXXXXXXX....                                     ..XXXXXXXXXX....                  ..XXXXXXXXXX....                    ..XXXXXXXXXX....                                     ..XXXXXXXXXX....                 ",
"..XXXXXXXXXX....                                     ..XXXXXXXXXX....                  ..XXXXXXXXXX....                    ..XXXXXXXXXX....                                     ..XXXXXXXXXX....                 ",
"..XXXXXXXXXX....                                     ..XXXXXXXXXX....                  ..XXXXXXXXXX....                    ..XXXXXXXXXX....                                     ..XXXXXXXXXX....                 ",
"..XXXXXXXXXX....                                     ..XXXXXXXXXX....                  ..XXXXXXXXXX....                    ..XXXXXXXXXX....                                     ..XXXXXXXXXX....                 ",
"..XXXXXXXXXX....                                     ..XXXXXXXXXX....                  ..XXXXXXXXXX....                    ..XXXXXXXXXX....                                     ..XXXXXXXXXX....                 ",
"..XXXXXXXXXX....                                     ..XXXXXXXXXX....                  ..XXXXXXXXXX....                    ..XXXXXXXXXX....                                     ..XXXXXXXXXX....                 ",
"..XXXXXXXXXX....                                     ..XXXXXXXXXX..........    ..........XXXXXXXXXX....                    ..XXXXXXXXXX....                                     ..XXXXXXXXXX....                 ",
"..XXXXXXXXXX....                                     ..XXXXXXXXXX..........    ..........XXXXXXXXXX....                    ..XXXXXXXXXX....                                     ..XXXXXXXXXX....                 ",
"..XXXXXXXXXX....                                     ............XXXXXXXX....  ..XXXXXXXX..............                    ..XXXXXXXXXX....                                     ..XXXXXXXXXX....                 ",
"..XXXXXXXXXX....                                     ............XXXXXXXX....  ..XXXXXXXX..............                    ..XXXXXXXXXX....                                     ..XXXXXXXXXX....                 ",
"..XXXXXXXXXX....                                       ..........XXXXXXXX....  ..XXXXXXXX..............                    ..XXXXXXXXXX....                                     ..XXXXXXXXXX....                 ",
"..XXXXXXXXXX....                                       ..........XXXXXXXX....  ..XXXXXXXX..............                    ..XXXXXXXXXX....                                     ..XXXXXXXXXX....                 ",
"..XXXXXXXXXX....                                               ..XXXXXXXX....  ..XXXXXXXX....                              ..XXXXXXXXXX....                                     ..XXXXXXXXXX....                 ",
"..XXXXXXXXXX......................                             ..XXXXXXXX........XXXXXXXX....                              ..XXXXXXXXXX....                                     ..XXXXXXXXXX....                 ",
"..XXXXXXXXXX......................                             ..XXXXXXXX........XXXXXXXX....                              ..XXXXXXXXXX....                                     ..XXXXXXXXXX....                 ",
"..XXXXXXXXXXXXXXXXXXXXXXXXXXXXXX....                           ..XXXXXXXX........XXXXXXXX....                              ..XXXXXXXXXX....                                     ..XXXXXXXXXX....                 ",
"..XXXXXXXXXXXXXXXXXXXXXXXXXXXXXX....                           ..........XXXXXXXX............                              ..XXXXXXXXXX....                                     ..XXXXXXXXXX....                 ",
"..XXXXXXXXXXXXXXXXXXXXXXXXXXXXXX....                           ..........XXXXXXXX............                              ..XXXXXXXXXX....                                     ..XXXXXXXXXX....                 ",
"..XXXXXXXXXXXXXXXXXXXXXXXXXXXXXX....                             ........XXXXXXXX............                              ..XXXXXXXXXX....                                     ..XXXXXXXXXX....                 ",
"..XXXXXXXXXXXXXXXXXXXXXXXXXXXXXX....                             ........XXXXXXXX............                              ..XXXXXXXXXX....                                     ..XXXXXXXXXX....                 ",
"..XXXXXXXXXXXXXXXXXXXXXXXXXXXXXX....                                  ...XXXXXXXX....                                      ..XXXXXXXXXX....                                     ..XXXXXXXXXX....                 ",
"..XXXXXXXXXXXXXXXXXXXXXXXXXXXXXX....                                  ...XXXXXXXX....                                      ..XXXXXXXXXX....                                     ..XXXXXXXXXX....                 ",
"..XXXXXXXXXXXXXXXXXXXXXXXXXXXXXX....                           ..........XXXXXXXX..........                                ..XXXXXXXXXX....                                     ..XXXXXXXXXX....                 ",
"..XXXXXXXXXXXXXXXXXXXXXXXXXXXXXX....                           ..........XXXXXXXX..........                                ..XXXXXXXXXX....                                     ..XXXXXXXXXX....                 ",
"..XXXXXXXXXXXXXXXXXXXXXXXXXXXXXX....                           ..XXXXXXXX........XXXXXXXX....                              ..XXXXXXXXXX....                                     ..XXXXXXXXXX....                 ",
"..XXXXXXXXXX........................                           ..XXXXXXXX........XXXXXXXX....                              ..XXXXXXXXXX....                                     ..XXXXXXXXXX....                 ",
"..XXXXXXXXXX........................                           ..XXXXXXXX........XXXXXXXX....                              ..XXXXXXXXXX....                                     ..XXXXXXXXXX....                 ",
"..XXXXXXXXXX........................                           ..XXXXXXXX........XXXXXXXX....                              ..XXXXXXXXXX....                                     ..XXXXXXXXXX....                 ",
"..XXXXXXXXXX........................                           ..XXXXXXXX....  ..XXXXXXXX....                              ..XXXXXXXXXX....                                     ..XXXXXXXXXX....                 ",
"..XXXXXXXXXX....                                               ..XXXXXXXX....  ..XXXXXXXX....                              ..XXXXXXXXXX....                                     ..XXXXXXXXXX....                 ",
"..XXXXXXXXXX....                                     ............XXXXXXXX....  ..XXXXXXXX............                      ..XXXXXXXXXX....                                     ..XXXXXXXXXX....                 ",
"..XXXXXXXXXX....                                     ............XXXXXXXX....  ..XXXXXXXX............                      ..XXXXXXXXXX....                                     ..XXXXXXXXXX....                 ",
"..XXXXXXXXXX....                                     ..XXXXXXXXXX............  ..........XXXXXXXXXX....                    ..XXXXXXXXXX....                                     ..XXXXXXXXXX....                 ",
"..XXXXXXXXXX....                                     ..XXXXXXXXXX............  ..........XXXXXXXXXX....                    ..XXXXXXXXXX....                                     ..XXXXXXXXXX....                 ",
"..XXXXXXXXXX....                                     ..XXXXXXXXXX............    ........XXXXXXXXXX....                    ..XXXXXXXXXX....                                     ..XXXXXXXXXX....                 ",
"..XXXXXXXXXX....                                     ..XXXXXXXXXX............    ........XXXXXXXXXX....                    ..XXXXXXXXXX....                                     ..XXXXXXXXXX....                 ",
"..XXXXXXXXXX....                                     ..XXXXXXXXXX....                  ..XXXXXXXXXX....                    ..XXXXXXXXXX....                                     ..XXXXXXXXXX....                 ",
"..XXXXXXXXXX....                                     ..XXXXXXXXXX....                  ..XXXXXXXXXX....                    ..XXXXXXXXXX....                                     ..XXXXXXXXXX....                 ",
"..XXXXXXXXXX....                                     ..XXXXXXXXXX....                  ..XXXXXXXXXX....                    ..XXXXXXXXXX....                                     ..XXXXXXXXXX....                 ",
"..XXXXXXXXXX....                                     ..XXXXXXXXXX....                  ..XXXXXXXXXX....                    ..XXXXXXXXXX....                                     ..XXXXXXXXXX....                 ",
"..XXXXXXXXXX....                                     ..XXXXXXXXXX....                  ..XXXXXXXXXX....                    ..XXXXXXXXXX....                                     ..XXXXXXXXXX....                 ",
"..XXXXXXXXXX....                                     ..XXXXXXXXXX....                  ..XXXXXXXXXX....                    ..XXXXXXXXXX....                                     ..XXXXXXXXXX....                 ",
"..XXXXXXXXXX....                                     ..XXXXXXXXXX....                  ..XXXXXXXXXX....                    ..XXXXXXXXXX....                                     ..XXXXXXXXXX....                 ",
"..XXXXXXXXXX....................................     ..XXXXXXXXXX....                  ..XXXXXXXXXX....   ...................XXXXXXXXXX..................                       ..XXXXXXXXXX....                 ",
"..XXXXXXXXXX....................................     ..XXXXXXXXXX....                  ..XXXXXXXXXX....   ...................XXXXXXXXXX..................                       ..XXXXXXXXXX....                 ",
"..XXXXXXXXXXXXXXXXXXXXXXXXXXXXXXXXXXXXXXXXXXXX....   ..XXXXXXXXXX....                  ..XXXXXXXXXX....   ..XXXXXXXXXXXXXXXXXXXXXXXXXXXXXXXXXXXXXXXXXXX....                     ..XXXXXXXXXX....                 ",
"..XXXXXXXXXXXXXXXXXXXXXXXXXXXXXXXXXXXXXXXXXXXX....   ..XXXXXXXXXX....                  ..XXXXXXXXXX....   ..XXXXXXXXXXXXXXXXXXXXXXXXXXXXXXXXXXXXXXXXXXX....                     ..XXXXXXXXXX....                 ",
"..XXXXXXXXXXXXXXXXXXXXXXXXXXXXXXXXXXXXXXXXXXXX....   ..XXXXXXXXXX....                  ..XXXXXXXXXX....   ..XXXXXXXXXXXXXXXXXXXXXXXXXXXXXXXXXXXXXXXXXXX....                     ..XXXXXXXXXX....                 ",
"..XXXXXXXXXXXXXXXXXXXXXXXXXXXXXXXXXXXXXXXXXXXX....   ..XXXXXXXXXX....                  ..XXXXXXXXXX....   ..XXXXXXXXXXXXXXXXXXXXXXXXXXXXXXXXXXXXXXXXXXX....                     ..XXXXXXXXXX....                 ",
"..XXXXXXXXXXXXXXXXXXXXXXXXXXXXXXXXXXXXXXXXXXXX....   ..XXXXXXXXXX....                  ..XXXXXXXXXX....   ..XXXXXXXXXXXXXXXXXXXXXXXXXXXXXXXXXXXXXXXXXXX....                     ..XXXXXXXXXX....                 ",
"..XXXXXXXXXXXXXXXXXXXXXXXXXXXXXXXXXXXXXXXXXXXX....   ..XXXXXXXXXX....                  ..XXXXXXXXXX....   ..XXXXXXXXXXXXXXXXXXXXXXXXXXXXXXXXXXXXXXXXXXX....                     ..XXXXXXXXXX....                 ",
"..XXXXXXXXXXXXXXXXXXXXXXXXXXXXXXXXXXXXXXXXXXXX....   ..XXXXXXXXXX....                  ..XXXXXXXXXX....   ..XXXXXXXXXXXXXXXXXXXXXXXXXXXXXXXXXXXXXXXXXXX....                     ..XXXXXXXXXX....                 ",
"..XXXXXXXXXXXXXXXXXXXXXXXXXXXXXXXXXXXXXXXXXXXX....   ..XXXXXXXXXX....                  ..XXXXXXXXXX....   ..XXXXXXXXXXXXXXXXXXXXXXXXXXXXXXXXXXXXXXXXXXX....                     ..XXXXXXXXXX....                 ",
"..XXXXXXXXXXXXXXXXXXXXXXXXXXXXXXXXXXXXXXXXXXXX....   ..XXXXXXXXXX....                  ..XXXXXXXXXX....   ..XXXXXXXXXXXXXXXXXXXXXXXXXXXXXXXXXXXXXXXXXXX....                     ..XXXXXXXXXX....                 ",
"..XXXXXXXXXXXXXXXXXXXXXXXXXXXXXXXXXXXXXXXXXXXX....   ..XXXXXXXXXX....                  ..XXXXXXXXXX....   ..XXXXXXXXXXXXXXXXXXXXXXXXXXXXXXXXXXXXXXXXXXX....                     ..XXXXXXXXXX....                 ",
"..................................................   ................                  ................   .................................................                     ................                 ",
"..................................................   ................                  ................   .................................................                     ................                 ",
"  ................................................     ..............                    ..............     ...............................................                       ..............                 ",
"  ................................................     ..............                    ..............     ...............................................                       ..............                 "
};
