/* XPM */
static char *X[] = {
/* columns rows colors chars-per-pixel */
"45 45 2 1",
"  c #FFFFFE",
"< c #FF0000",

/* pixels */
"      <<<<                         <<<<      ",
"     <<<<<<                       <<<<<<     ",
"    <<<<<<<<                     <<<<<<<<    ",
"   <<<<<<<<<<                   <<<<<<<<<<   ",
"  <<<<<<<<<<<<                 <<<<<<<<<<<<  ",
" <<<<<<<<<<<<<<               <<<<<<<<<<<<<< ",
"<<<<<<<<<<<<<<<<             <<<<<<<<<<<<<<<<",
"<<<<<<<<<<<<<<<<<           <<<<<<<<<<<<<<<<<",
"<<<<<<<<<<<<<<<<<<         <<<<<<<<<<<<<<<<<<",
" <<<<<<<<<<<<<<<<<<       <<<<<<<<<<<<<<<<<< ",
"  <<<<<<<<<<<<<<<<<<     <<<<<<<<<<<<<<<<<<  ",
"   <<<<<<<<<<<<<<<<<<   <<<<<<<<<<<<<<<<<<   ",
"    <<<<<<<<<<<<<<<<<< <<<<<<<<<<<<<<<<<<    ",
"     <<<<<<<<<<<<<<<<<<<<<<<<<<<<<<<<<<<     ",
"      <<<<<<<<<<<<<<<<<<<<<<<<<<<<<<<<<      ",
"       <<<<<<<<<<<<<<<<<<<<<<<<<<<<<<<       ",
"        <<<<<<<<<<<<<<<<<<<<<<<<<<<<<        ",
"         <<<<<<<<<<<<<<<<<<<<<<<<<<<         ",
"          <<<<<<<<<<<<<<<<<<<<<<<<<          ",
"           <<<<<<<<<<<<<<<<<<<<<<<           ",
"            <<<<<<<<<<<<<<<<<<<<<            ",
"             <<<<<<<<<<<<<<<<<<<             ",
"             <<<<<<<<<<<<<<<<<<<             ",
"            <<<<<<<<<<<<<<<<<<<<<            ",
"           <<<<<<<<<<<<<<<<<<<<<<<           ",
"          <<<<<<<<<<<<<<<<<<<<<<<<<          ",
"         <<<<<<<<<<<<<<<<<<<<<<<<<<<         ",
"        <<<<<<<<<<<<<<<<<<<<<<<<<<<<<        ",
"       <<<<<<<<<<<<<<<<<<<<<<<<<<<<<<<       ",
"      <<<<<<<<<<<<<<<<<<<<<<<<<<<<<<<<<      ",
"     <<<<<<<<<<<<<<<<<<<<<<<<<<<<<<<<<<<     ",
"    <<<<<<<<<<<<<<<<<<<<<<<<<<<<<<<<<<<<<    ",
"   <<<<<<<<<<<<<<<<<<< <<<<<<<<<<<<<<<<<<<   ",
"  <<<<<<<<<<<<<<<<<<<   <<<<<<<<<<<<<<<<<<<  ",
" <<<<<<<<<<<<<<<<<<<     <<<<<<<<<<<<<<<<<<< ",
"<<<<<<<<<<<<<<<<<<         <<<<<<<<<<<<<<<<<<",
"<<<<<<<<<<<<<<<<<           <<<<<<<<<<<<<<<<<",
"<<<<<<<<<<<<<<<<             <<<<<<<<<<<<<<<<",
"<<<<<<<<<<<<<<<               <<<<<<<<<<<<<<<",
" <<<<<<<<<<<<<                 <<<<<<<<<<<<< ",
"  <<<<<<<<<<<                   <<<<<<<<<<<  ",
"   <<<<<<<<<                     <<<<<<<<<   ",
"    <<<<<<<                       <<<<<<<    ",
"     <<<<<                         <<<<<     ",
"      <<<                           <<<      "
};
